<mxfile host="app.diagrams.net" modified="2024-05-14T19:18:11.790Z" agent="Mozilla/5.0 (Windows NT 10.0; Win64; x64) AppleWebKit/537.36 (KHTML, like Gecko) Chrome/124.0.0.0 Safari/537.36" etag="s8ME3cdGxT8yoN-TNMf1" version="24.4.0" type="github">
  <diagram name="PÃ¡gina-1" id="9F6LY2YsvlTQgvHYUG6k">
    <mxGraphModel dx="724" dy="384" grid="1" gridSize="10" guides="1" tooltips="1" connect="1" arrows="1" fold="1" page="1" pageScale="1" pageWidth="4681" pageHeight="3300" math="0" shadow="0">
      <root>
        <mxCell id="0" />
        <mxCell id="1" parent="0" />
        <mxCell id="LYSwqqeutZOUgQyVwtXk-1" value="LIVRO" style="whiteSpace=wrap;html=1;align=center;" vertex="1" parent="1">
          <mxGeometry x="530" y="350" width="100" height="40" as="geometry" />
        </mxCell>
        <mxCell id="LYSwqqeutZOUgQyVwtXk-2" value="USUARIO" style="whiteSpace=wrap;html=1;align=center;" vertex="1" parent="1">
          <mxGeometry x="870" y="350" width="100" height="40" as="geometry" />
        </mxCell>
        <mxCell id="LYSwqqeutZOUgQyVwtXk-3" value="" style="endArrow=oval;html=1;rounded=0;exitX=0.104;exitY=1.055;exitDx=0;exitDy=0;exitPerimeter=0;endFill=1;" edge="1" parent="1" source="LYSwqqeutZOUgQyVwtXk-1">
          <mxGeometry relative="1" as="geometry">
            <mxPoint x="560" y="500" as="sourcePoint" />
            <mxPoint x="540" y="470" as="targetPoint" />
          </mxGeometry>
        </mxCell>
        <mxCell id="LYSwqqeutZOUgQyVwtXk-6" value="id" style="edgeLabel;html=1;align=center;verticalAlign=middle;resizable=0;points=[];" vertex="1" connectable="0" parent="LYSwqqeutZOUgQyVwtXk-3">
          <mxGeometry x="0.306" relative="1" as="geometry">
            <mxPoint y="47" as="offset" />
          </mxGeometry>
        </mxCell>
        <mxCell id="LYSwqqeutZOUgQyVwtXk-4" value="" style="endArrow=oval;html=1;rounded=0;exitX=0.25;exitY=1;exitDx=0;exitDy=0;endFill=0;" edge="1" parent="1" source="LYSwqqeutZOUgQyVwtXk-1">
          <mxGeometry relative="1" as="geometry">
            <mxPoint x="550" y="390" as="sourcePoint" />
            <mxPoint x="555" y="470" as="targetPoint" />
          </mxGeometry>
        </mxCell>
        <mxCell id="LYSwqqeutZOUgQyVwtXk-13" value="nome" style="edgeLabel;html=1;align=center;verticalAlign=middle;resizable=0;points=[];" vertex="1" connectable="0" parent="LYSwqqeutZOUgQyVwtXk-4">
          <mxGeometry x="0.35" y="-1" relative="1" as="geometry">
            <mxPoint x="16" y="46" as="offset" />
          </mxGeometry>
        </mxCell>
        <mxCell id="LYSwqqeutZOUgQyVwtXk-5" value="" style="endArrow=oval;html=1;rounded=0;exitX=0.5;exitY=1;exitDx=0;exitDy=0;endFill=0;" edge="1" parent="1" source="LYSwqqeutZOUgQyVwtXk-1">
          <mxGeometry relative="1" as="geometry">
            <mxPoint x="560" y="412" as="sourcePoint" />
            <mxPoint x="580" y="450" as="targetPoint" />
          </mxGeometry>
        </mxCell>
        <mxCell id="LYSwqqeutZOUgQyVwtXk-10" value="Comprar" style="shape=rhombus;perimeter=rhombusPerimeter;whiteSpace=wrap;html=1;align=center;" vertex="1" parent="1">
          <mxGeometry x="690" y="340" width="120" height="60" as="geometry" />
        </mxCell>
        <mxCell id="LYSwqqeutZOUgQyVwtXk-11" value="" style="endArrow=none;html=1;rounded=0;exitX=1;exitY=0.5;exitDx=0;exitDy=0;entryX=0;entryY=0.5;entryDx=0;entryDy=0;" edge="1" parent="1" source="LYSwqqeutZOUgQyVwtXk-10" target="LYSwqqeutZOUgQyVwtXk-2">
          <mxGeometry relative="1" as="geometry">
            <mxPoint x="730" y="520" as="sourcePoint" />
            <mxPoint x="890" y="520" as="targetPoint" />
          </mxGeometry>
        </mxCell>
        <mxCell id="LYSwqqeutZOUgQyVwtXk-12" value="" style="endArrow=none;html=1;rounded=0;exitX=1;exitY=0.5;exitDx=0;exitDy=0;entryX=0;entryY=0.5;entryDx=0;entryDy=0;" edge="1" parent="1" source="LYSwqqeutZOUgQyVwtXk-1" target="LYSwqqeutZOUgQyVwtXk-10">
          <mxGeometry relative="1" as="geometry">
            <mxPoint x="820" y="380" as="sourcePoint" />
            <mxPoint x="880" y="380" as="targetPoint" />
          </mxGeometry>
        </mxCell>
        <mxCell id="LYSwqqeutZOUgQyVwtXk-14" value="AUTOR" style="whiteSpace=wrap;html=1;align=center;" vertex="1" parent="1">
          <mxGeometry x="220" y="360" width="100" height="40" as="geometry" />
        </mxCell>
        <mxCell id="LYSwqqeutZOUgQyVwtXk-15" value="" style="endArrow=oval;html=1;rounded=0;exitX=0.156;exitY=1.075;exitDx=0;exitDy=0;exitPerimeter=0;endFill=1;" edge="1" parent="1" source="LYSwqqeutZOUgQyVwtXk-14">
          <mxGeometry relative="1" as="geometry">
            <mxPoint x="490" y="402" as="sourcePoint" />
            <mxPoint x="236" y="470" as="targetPoint" />
          </mxGeometry>
        </mxCell>
        <mxCell id="LYSwqqeutZOUgQyVwtXk-16" value="id" style="edgeLabel;html=1;align=center;verticalAlign=middle;resizable=0;points=[];" vertex="1" connectable="0" parent="LYSwqqeutZOUgQyVwtXk-15">
          <mxGeometry x="0.306" relative="1" as="geometry">
            <mxPoint y="47" as="offset" />
          </mxGeometry>
        </mxCell>
        <mxCell id="LYSwqqeutZOUgQyVwtXk-17" value="" style="endArrow=oval;html=1;rounded=0;exitX=0.5;exitY=1;exitDx=0;exitDy=0;endFill=0;" edge="1" parent="1" source="LYSwqqeutZOUgQyVwtXk-14">
          <mxGeometry relative="1" as="geometry">
            <mxPoint x="505" y="400" as="sourcePoint" />
            <mxPoint x="270" y="470" as="targetPoint" />
          </mxGeometry>
        </mxCell>
        <mxCell id="LYSwqqeutZOUgQyVwtXk-18" value="nome" style="edgeLabel;html=1;align=center;verticalAlign=middle;resizable=0;points=[];" vertex="1" connectable="0" parent="LYSwqqeutZOUgQyVwtXk-17">
          <mxGeometry x="0.35" y="-1" relative="1" as="geometry">
            <mxPoint x="16" y="46" as="offset" />
          </mxGeometry>
        </mxCell>
        <mxCell id="LYSwqqeutZOUgQyVwtXk-19" value="Autoria" style="shape=rhombus;perimeter=rhombusPerimeter;whiteSpace=wrap;html=1;align=center;" vertex="1" parent="1">
          <mxGeometry x="370" y="340" width="120" height="60" as="geometry" />
        </mxCell>
        <mxCell id="LYSwqqeutZOUgQyVwtXk-20" value="" style="endArrow=none;html=1;rounded=0;exitX=1;exitY=0.5;exitDx=0;exitDy=0;entryX=0;entryY=0.5;entryDx=0;entryDy=0;" edge="1" parent="1" source="LYSwqqeutZOUgQyVwtXk-14" target="LYSwqqeutZOUgQyVwtXk-19">
          <mxGeometry relative="1" as="geometry">
            <mxPoint x="400" y="430" as="sourcePoint" />
            <mxPoint x="620" y="490" as="targetPoint" />
          </mxGeometry>
        </mxCell>
        <mxCell id="LYSwqqeutZOUgQyVwtXk-21" value="" style="endArrow=none;html=1;rounded=0;exitX=1;exitY=0.5;exitDx=0;exitDy=0;entryX=0;entryY=0.5;entryDx=0;entryDy=0;" edge="1" parent="1" source="LYSwqqeutZOUgQyVwtXk-19" target="LYSwqqeutZOUgQyVwtXk-1">
          <mxGeometry relative="1" as="geometry">
            <mxPoint x="330" y="390" as="sourcePoint" />
            <mxPoint x="380" y="380" as="targetPoint" />
          </mxGeometry>
        </mxCell>
        <mxCell id="LYSwqqeutZOUgQyVwtXk-23" value="" style="endArrow=oval;html=1;rounded=0;exitX=0.5;exitY=0;exitDx=0;exitDy=0;endFill=0;" edge="1" parent="1" source="LYSwqqeutZOUgQyVwtXk-10">
          <mxGeometry relative="1" as="geometry">
            <mxPoint x="770" y="210" as="sourcePoint" />
            <mxPoint x="750" y="290" as="targetPoint" />
          </mxGeometry>
        </mxCell>
        <mxCell id="LYSwqqeutZOUgQyVwtXk-24" value="Data" style="edgeLabel;html=1;align=center;verticalAlign=middle;resizable=0;points=[];" vertex="1" connectable="0" parent="LYSwqqeutZOUgQyVwtXk-23">
          <mxGeometry x="-0.4" y="-3" relative="1" as="geometry">
            <mxPoint x="-3" y="-41" as="offset" />
          </mxGeometry>
        </mxCell>
        <mxCell id="LYSwqqeutZOUgQyVwtXk-25" value="" style="endArrow=oval;html=1;rounded=0;exitX=0.25;exitY=1;exitDx=0;exitDy=0;endFill=0;" edge="1" parent="1" source="LYSwqqeutZOUgQyVwtXk-2">
          <mxGeometry relative="1" as="geometry">
            <mxPoint x="900" y="400" as="sourcePoint" />
            <mxPoint x="900" y="480" as="targetPoint" />
          </mxGeometry>
        </mxCell>
        <mxCell id="LYSwqqeutZOUgQyVwtXk-26" value="nome" style="edgeLabel;html=1;align=center;verticalAlign=middle;resizable=0;points=[];" vertex="1" connectable="0" parent="LYSwqqeutZOUgQyVwtXk-25">
          <mxGeometry x="0.35" y="-1" relative="1" as="geometry">
            <mxPoint x="3" y="46" as="offset" />
          </mxGeometry>
        </mxCell>
        <mxCell id="LYSwqqeutZOUgQyVwtXk-27" value="" style="endArrow=oval;html=1;rounded=0;exitX=0.664;exitY=1.015;exitDx=0;exitDy=0;exitPerimeter=0;endFill=1;" edge="1" parent="1" source="LYSwqqeutZOUgQyVwtXk-2">
          <mxGeometry relative="1" as="geometry">
            <mxPoint x="940" y="400" as="sourcePoint" />
            <mxPoint x="940" y="478" as="targetPoint" />
          </mxGeometry>
        </mxCell>
        <mxCell id="LYSwqqeutZOUgQyVwtXk-28" value="cpf" style="edgeLabel;html=1;align=center;verticalAlign=middle;resizable=0;points=[];" vertex="1" connectable="0" parent="LYSwqqeutZOUgQyVwtXk-27">
          <mxGeometry x="0.306" relative="1" as="geometry">
            <mxPoint y="47" as="offset" />
          </mxGeometry>
        </mxCell>
        <mxCell id="LYSwqqeutZOUgQyVwtXk-31" value="" style="endArrow=oval;html=1;rounded=0;exitX=0;exitY=1;exitDx=0;exitDy=0;endFill=0;" edge="1" parent="1" source="LYSwqqeutZOUgQyVwtXk-2">
          <mxGeometry relative="1" as="geometry">
            <mxPoint x="877.0000000000002" y="411.68000000000006" as="sourcePoint" />
            <mxPoint x="870" y="500" as="targetPoint" />
          </mxGeometry>
        </mxCell>
        <mxCell id="LYSwqqeutZOUgQyVwtXk-32" value="nivel_de_acesso" style="edgeLabel;html=1;align=center;verticalAlign=middle;resizable=0;points=[];" vertex="1" connectable="0" parent="LYSwqqeutZOUgQyVwtXk-31">
          <mxGeometry x="0.35" y="-1" relative="1" as="geometry">
            <mxPoint x="3" y="46" as="offset" />
          </mxGeometry>
        </mxCell>
        <mxCell id="LYSwqqeutZOUgQyVwtXk-33" value="Cadastrar" style="shape=rhombus;perimeter=rhombusPerimeter;whiteSpace=wrap;html=1;align=center;" vertex="1" parent="1">
          <mxGeometry x="690" y="440" width="120" height="60" as="geometry" />
        </mxCell>
        <mxCell id="LYSwqqeutZOUgQyVwtXk-34" value="" style="endArrow=none;html=1;rounded=0;exitX=1;exitY=0.75;exitDx=0;exitDy=0;entryX=0;entryY=0.5;entryDx=0;entryDy=0;" edge="1" parent="1" source="LYSwqqeutZOUgQyVwtXk-1" target="LYSwqqeutZOUgQyVwtXk-33">
          <mxGeometry relative="1" as="geometry">
            <mxPoint x="640" y="380" as="sourcePoint" />
            <mxPoint x="700" y="380" as="targetPoint" />
          </mxGeometry>
        </mxCell>
        <mxCell id="LYSwqqeutZOUgQyVwtXk-35" value="" style="endArrow=none;html=1;rounded=0;exitX=0;exitY=0.75;exitDx=0;exitDy=0;entryX=1;entryY=0.5;entryDx=0;entryDy=0;" edge="1" parent="1" source="LYSwqqeutZOUgQyVwtXk-2" target="LYSwqqeutZOUgQyVwtXk-33">
          <mxGeometry relative="1" as="geometry">
            <mxPoint x="640" y="390" as="sourcePoint" />
            <mxPoint x="710" y="470" as="targetPoint" />
          </mxGeometry>
        </mxCell>
      </root>
    </mxGraphModel>
  </diagram>
</mxfile>
